<svg width="210" height="197" viewBox="0 0 210 197" fill="none" xmlns="http://www.w3.org/2000/svg">
<g clip-path="url(#clip0_116_510)">
<path d="M12.7901 68.0078C10.457 66.784 8.42304 65.3065 5.34818 65.3175C2.53653 65.3285 0.335072 63.3108 1.36401 60.5212C2.23742 58.1727 5.75497 56.9047 7.45392 58.0294C13.2567 61.8995 19.6218 59.6943 25.6758 60.4C26.8363 60.5323 28.0926 60.2566 29.2053 60.5323C31.0239 60.9733 34.4337 59.7605 34.1586 62.6823C33.9193 65.2514 30.9162 64.1377 29.2531 63.7077C24.7904 62.539 25.4365 67.2471 22.8522 68.1291C22.0027 67.9637 21.4284 67.4676 20.9737 66.8281C18.6048 64.3803 16.3435 62.9249 14.7044 67.3904C14.2497 68.085 13.7113 68.5481 12.7901 68.0078Z" fill="#EC694C"/>
<path d="M115.062 24.1798C109.846 24.3893 107.333 23.0001 109.188 17.4871C110.504 13.5619 110.743 9.30588 111.126 5.17116C111.593 0.187449 115.218 -0.132302 118.855 1.09157C120.901 1.77518 124.299 1.11363 124.957 4.28909C122.791 7.16685 120.709 4.90654 118.604 4.21191C116.654 3.32983 115.828 4.30012 115.397 5.88785C115.278 6.35093 115.122 6.81402 114.967 7.27711C114.404 8.91997 114.524 10.6069 114.56 12.2829C114.596 12.8231 114.464 13.3965 114.584 13.9147C115.11 16.0317 112.729 19.0528 116.067 20.1664C119.262 21.2359 122.217 19.8908 124.502 17.5533C125.029 17.013 125.543 16.4617 125.998 15.8773C127.493 13.6501 127.374 11.4118 126.07 9.16254C125.16 7.61892 123.533 6.21862 124.861 4.22293C131.286 6.40606 132.925 14.2565 127.984 19.7805C126.285 21.688 124.215 23.3198 121.535 24.0916C119.393 24.8855 117.228 24.6981 115.062 24.1909V24.1798Z" fill="#EB5F3F"/>
<path d="M191.515 129.113C192.699 128.772 193.896 128.43 195.08 128.088C196.025 127.415 196.109 126.754 195.032 126.114C190.677 123.567 184.982 123.556 180.794 119.907C183.068 119.036 184.826 118.87 186.717 119.775C191.323 121.991 195.953 124.086 201.098 125.155C202.522 125.453 205.19 125.519 204.975 127.724C204.783 129.687 202.486 129.786 200.775 130.095C195.762 130.988 190.737 131.859 185.7 132.631C184.503 132.818 183.379 132.906 182.649 134.064C183.821 135.916 186.071 136.115 187.997 136.81C188.655 138.033 187.818 138.574 186.789 139.026C182.864 137.24 177.887 137.24 174.92 132.928C178.114 131.043 181.453 130.128 185.15 130.194C187.124 129.158 189.624 130.646 191.491 129.102L191.515 129.113Z" fill="#EA5B3B"/>
<path d="M60.9348 21.3903C62.8492 22.5259 64.7754 23.6506 67.1803 25.0729C68.0537 19.6923 67.5153 14.6975 67.2042 9.71382C67.0965 8.07096 66.5222 6.22963 68.7476 5.535C71.2961 4.74113 71.6191 7.00144 72.2891 8.31353C74.9093 13.4406 77.4219 18.6228 79.7789 23.8601C80.066 24.4885 81.8008 25.7786 79.731 26.385C78.4628 26.7599 77.6611 25.9881 77.1108 24.7973C75.7349 21.8203 74.2034 18.8874 72.6361 15.9876C72.325 15.4032 71.5832 15.0063 70.65 14.1903C70.65 17.895 70.6739 21.2249 70.638 24.5547C70.626 25.944 71.1764 27.675 69.3458 28.3807C67.5631 29.0753 65.8762 28.4579 64.572 27.1348C63.2559 25.8117 61.9638 24.4665 60.6597 23.1324C60.2289 22.4818 60.3247 21.8975 60.9348 21.3792V21.3903Z" fill="#EA5A3A"/>
<path d="M147.917 31.0931C155.993 27.5207 159.965 21.0485 167.395 19.7695C162.454 25.6904 155.55 29.4282 149.58 34.1583C148.73 34.8309 147.654 35.5034 146.397 34.6655C145.045 33.7724 145.177 32.7249 145.548 31.3246C147.139 25.3706 149.388 19.56 149.903 13.3744C150.023 11.9631 150.836 10.7062 152.451 11.0259C154.318 11.3898 153.684 12.7459 153.313 14.047C151.817 19.3394 152.045 24.9847 147.905 31.0931H147.917Z" fill="#EB5E3F"/>
<path d="M96.41 13.033C92.8924 13.6284 89.5663 13.9151 90.5354 18.8767C91.1576 22.0191 92.7848 22.1625 95.2973 21.9971C97.6064 23.3643 100.586 20.6519 102.715 23.0445C102.548 23.1438 102.404 23.2981 102.225 23.3422C93.2354 25.2166 87.9431 22.0301 86.3479 13.7828C86.2402 13.2425 86.0966 12.7132 86.0129 12.173C84.4096 1.54399 86.1924 -0.385544 97.5586 0.0444669C99.1857 0.110622 99.2097 1.27937 98.0013 2.26068C95.9912 3.19788 93.5864 1.90785 91.6481 3.21993C85.5463 5.25972 89.7338 8.83212 90.1406 11.8422C92.3301 11.754 94.9025 10.0119 96.398 13.033H96.41Z" fill="#EA5C3C"/>
<path d="M206.913 109.311C207.643 103.302 202.953 104.294 199.124 104.195C196.612 106.345 199.268 109.432 197.521 111.726C193.92 109.961 196.361 107.139 196.097 104.801C193.178 102.53 190.103 101.979 186.765 104.03C183.678 103.247 185.138 101.416 185.628 99.8066C192.532 99.4537 199.256 100.986 206.076 101.516C209.342 101.769 210.574 102.971 209.785 106.047C209.031 109.002 210.012 112.222 208.301 115.055C205.023 113.721 206.71 111.373 206.925 109.322L206.913 109.311Z" fill="#EA5938"/>
<path d="M168.004 160.659C169.584 162.897 171.486 164.992 172.659 167.395C174.094 170.306 173.376 173.206 170.577 175.268C167.861 177.275 164.93 178.278 161.388 176.525C153.097 172.423 149.172 164.981 152.152 158.564C152.953 158.95 153.384 159.611 153.731 160.35C154.867 163.823 156.303 167.164 159.019 169.876C161.113 171.971 163.673 173.691 166.7 171.905C169.703 170.141 167.777 167.792 166.7 165.719C166.102 164.562 165.552 163.415 166.054 162.103C166.473 161.364 167.083 160.835 168.004 160.67V160.659Z" fill="#EB6242"/>
<path d="M203.036 87.3914C203.802 85.7265 204.735 84.1057 205.286 82.3856C206.865 77.457 204.747 75.3621 199.232 76.1119C196.695 76.4537 194.099 76.4537 191.574 76.8616C183.869 78.1076 183.116 79.6622 187.184 86.1234C187.818 87.1268 188.332 87.9758 188.045 89.1335C183.487 88.2294 182.984 85.0649 183.092 81.5587C182.577 79.3535 181.895 77.1263 184.396 75.4724L184.348 75.4944C186.179 74.2595 188.643 75.8803 190.402 74.3367L190.689 74.1603L190.988 74.3257C193.453 73.3003 196.324 74.6895 198.729 73.2451C204.225 71.8926 207.312 73.4179 207.99 77.8209C207.045 79.6071 208.205 81.691 207.092 83.4551C207.14 83.7859 207.272 84.0946 207.451 84.3923C207.727 86.4211 207.021 87.8435 204.64 88.2073C203.97 88.1632 203.431 87.8986 203.036 87.3914Z" fill="#EB6244"/>
<path d="M91.6837 174.143C88.8122 173.735 88.0944 175.367 87.544 177.528C86.3236 182.291 84.8759 187.011 83.512 191.741C83.2129 192.777 83.0095 194.1 81.4182 193.858C79.4321 193.549 79.791 192.138 80.1619 190.87C81.3943 186.669 82.495 182.435 83.9666 178.3C85.3186 174.518 85.2588 171.916 79.8509 172.015C78.8458 172.037 77.9964 171.497 77.6973 169.887C83.7393 169.027 89.0276 171.199 94.4116 172.875C93.9091 174.044 92.4973 173.548 91.6837 174.132V174.143Z" fill="#EB5F40"/>
<path d="M60.7433 185.202C62.9448 184.375 66.1512 186.106 67.4553 183.096C68.7116 180.23 65.9957 178.906 64.4882 177.131C64.0096 176.569 63.4712 176.04 63.0165 175.455C60.4322 172.115 58.6734 168.443 62.9328 165.411C67.0605 162.478 71.0088 163.812 74.0717 167.495C73.8563 168.3 73.3299 168.818 72.4445 169.005C72.0976 168.84 71.7506 168.696 71.4156 168.509C69.2739 167.307 67.0127 165.499 64.7633 167.98C62.8251 170.119 64.7035 171.982 66.0675 173.702C67.4195 175.411 68.8432 177.087 70.2311 178.774C71.1643 180.516 71.1404 182.269 70.2431 184.022C68.2091 187.948 64.6557 188.091 60.7194 187.231C60.0374 186.558 60.0015 185.875 60.7194 185.202H60.7433Z" fill="#EA5B3A"/>
<path d="M41.7319 174.088C35.4625 173.184 34.8403 171.96 38.5134 167.693C42.1746 163.437 45.8476 159.192 49.4848 154.925C50.1788 154.12 50.6334 152.731 52.0692 153.668C53.1579 154.374 54.4142 155.377 54.7133 156.469C55.1679 158.112 53.3613 157.604 52.3443 157.891C46.9962 159.402 47.1757 162.401 50.2865 166.006C42.3899 166.183 40.1286 168.41 41.6242 174.198L41.7319 174.099V174.088Z" fill="#EA5A3A"/>
<path d="M39.4226 53.6852C38.6329 57.0922 37.5202 59.1761 33.5839 55.8021C29.9348 52.6708 26.1181 49.6166 21.9664 47.0917C16.7619 43.9162 18.1139 40.9172 21.4879 37.6645C22.5288 36.6501 23.3663 35.316 25.0892 35.0844C26.2976 35.5365 26.8599 36.3083 26.5369 37.5322C23.6893 40.5643 23.7013 43.0562 27.7094 45.4157C31.6218 47.7201 34.1343 51.7997 38.8961 53.0898C39.0756 53.2882 39.2431 53.4867 39.4226 53.6962V53.6852Z" fill="#EB5F40"/>
<path d="M130.257 191.686C133.631 190.506 136.957 189.238 136.646 185.092C136.299 180.505 135.222 176.139 131.202 172.964C128.713 171.001 126.392 173.383 123.976 173.416C123.282 172.842 123.162 172.17 123.617 171.42C128.618 168.366 132.71 168.917 136.036 173.349C137.926 175.874 139.374 178.653 139.17 181.884C138.357 183.725 138.201 185.555 139.29 187.352C137.184 190.407 136.407 195.787 130.257 191.686Z" fill="#EB5F40"/>
<path d="M183.905 61.2159C184.48 55.9234 183.14 55.0083 177.971 56.8606C176.32 57.456 174.633 59.143 171.582 56.6291C178.761 53.2662 185.509 49.9694 192.4 46.9814C194.398 46.1214 195.499 47.8966 196.301 49.4181C197.258 50.5428 196.743 51.2815 195.571 51.8769C189.313 51.3808 188.141 52.2518 187.04 58.2719C186.502 59.7163 186.885 62.0097 183.893 61.2269L183.905 61.2159Z" fill="#EB5F40"/>
<path d="M34.1345 130.867C33.6559 131.263 33.1654 131.859 32.5193 132.157C26.3816 135.034 20.2199 137.857 14.0821 140.713C12.9574 141.242 11.7969 141.672 11.0312 140.415C10.2535 139.125 11.3422 138.386 12.4071 137.89C18.5568 135.034 24.7185 132.201 30.8922 129.4C32.3638 128.739 33.5722 128.948 34.1226 130.856L34.1345 130.867Z" fill="#EB6040"/>
<path d="M60.9349 21.3903C60.8391 21.9746 60.7554 22.559 60.6597 23.1434C59.7025 22.9449 58.5898 23.0662 58.0873 22.0187C54.3664 22.2062 57.3336 24.0916 57.1421 25.1832C58.3864 27.5648 59.7623 29.9023 60.7674 32.361C61.0306 33.0006 62.6099 34.2796 60.6597 34.9191C59.7145 35.2388 58.853 34.9852 58.3027 33.9157C55.2876 28.0499 52.1649 22.2172 49.114 16.3624C48.7909 15.734 48.4799 14.9842 49.3293 14.4219C50.2386 13.8155 51.2437 13.8706 52.0931 14.3998C55.3116 16.4286 58.518 18.5015 60.9229 21.4013L60.9349 21.3903Z" fill="#EA5A3A"/>
<path d="M160.766 44.8534C159.737 43.5855 158.266 42.5049 160.396 40.829C165.313 36.9479 169.381 32.2067 174.657 28.6453C176.404 27.4766 178.007 26.2417 179.383 28.6894C180.699 31.038 177.995 30.619 176.906 31.2916C174.526 32.758 171.642 33.8275 171.606 37.1022C170.649 38.4143 168.89 37.2345 167.802 38.1497C165.756 40.0241 162.537 41.2259 163.363 44.7432C162.537 45.526 161.664 45.4488 160.766 44.8534Z" fill="#EA5B3B"/>
<path d="M142.808 164.418C148.563 169.369 151.458 175.963 154.749 182.302C155.131 183.03 154.844 183.747 153.971 184.023C153.121 184.287 152.535 183.912 152.104 183.174C151.016 181.244 149.831 179.359 148.742 177.429C147.103 174.496 145.608 172.015 141.037 171.949C137.759 171.905 140.284 170.45 141.277 169.722C143.394 168.344 141.241 165.929 142.796 164.418H142.808Z" fill="#EB6041"/>
<path d="M113.112 184.056C114.715 181.575 117.024 178.94 113.423 176.47C109.486 173.779 106.077 175.61 102.858 178.521C101.099 174.485 104.725 173.746 106.759 173.283C111.054 172.302 115.636 172.611 118.053 176.734C120.482 180.88 117.933 183.956 114.344 186.437C113.207 185.963 113.794 184.728 113.112 184.056Z" fill="#EA5C3C"/>
<path d="M26.2624 37.0912C25.8675 36.4186 25.4847 35.746 25.0898 35.0734C34.2187 30.7403 41.1701 33.0557 44.2808 41.4685C44.0535 42.3064 43.4792 42.8357 42.5938 43.0893C42.0195 43.1113 41.4811 42.979 40.9906 42.7254C37.6047 37.4771 31.8737 37.4109 26.2624 37.0912Z" fill="#EB6344"/>
<path d="M3.58914 111.737C8.74581 112.442 13.723 111.77 18.7481 110.579C21.0812 110.028 23.6894 108.065 26.7523 110.766C20.8299 112.994 15.1229 114.317 9.29618 115.199C7.50151 115.463 5.7547 115.518 4.77362 117.205C4.47451 117.558 4.07968 117.757 3.6011 117.823C3.12252 117.757 2.7277 117.547 2.39269 117.228C2.20126 116.974 2.17733 116.709 2.32091 116.434C2.22519 114.758 0.490346 112.696 3.58914 111.748V111.737Z" fill="#EA5735"/>
<path d="M12.7903 68.0078C13.3167 67.5778 13.8432 67.1588 14.3696 66.7288C17.3399 69.4777 19.1793 69.3089 21.62 66.7839C22.0268 67.236 22.4456 67.677 22.8524 68.1291C22.1226 71.47 24.0847 73.4877 26.8126 75.2077C27.9373 75.9134 29.2414 76.8396 27.9373 78.2399C26.5255 79.7614 25.4008 78.2729 24.5633 77.5232C20.8065 74.1603 16.0087 71.9 12.7783 68.0078H12.7903Z" fill="#EB6041"/>
<path d="M17.9352 87.5678C17.325 87.9868 16.7148 88.4058 16.1046 88.8137C14.0587 93.8416 14.0826 93.8746 20.1845 95.6167C16.8105 97.1934 16.0568 97.2486 9.39257 96.4437L8.89007 96.5429L8.42345 96.3444C6.892 95.3301 5.14519 95.8262 3.50606 95.8152C1.20889 95.8042 0.574774 94.7016 0.718348 92.8603C0.88585 90.6771 0.323521 88.4499 1.11317 86.2888C1.23282 85.6273 1.35246 84.9767 1.48407 84.3152C2.22587 83.7087 3.01552 83.6095 3.865 84.1057C4.41536 84.7672 4.5709 85.528 4.52304 86.3329C4.42733 88.4058 2.85998 90.633 5.28877 92.4302C7.13129 92.9374 8.92596 92.9595 10.6369 92.0884C12.623 90.1038 10.9001 87.0275 13.0896 85.1201C13.6639 84.9216 14.2023 84.9657 14.7287 85.2524C15.4107 85.3406 16.0807 85.4178 16.7627 85.506C17.7198 85.925 18.5454 86.3991 17.9352 87.5678Z" fill="#E84B27"/>
<path d="M123.605 171.42C123.724 172.081 123.844 172.754 123.964 173.416C123.449 180.296 124.131 186.834 130.353 191.719C129.503 193.284 128.414 193.086 127.062 192.226C121.152 188.455 119.226 176.999 123.605 171.42Z" fill="#E95735"/>
<path d="M113.112 184.056C114.141 184.574 114.26 185.5 114.344 186.437C112.669 188.576 110.994 190.704 109.319 192.843C108.266 195.203 112.956 193.714 111.88 196.085C109.247 196.746 106.627 197.386 103.528 196.713C105.873 191.84 109.75 188.102 113.112 184.056Z" fill="#E95230"/>
<path d="M194.817 51.5241C195.846 51.1382 196.229 50.3664 196.301 49.4071C198.023 50.631 198.681 52.329 198.837 54.2585C199.352 56.1881 199.687 58.1066 198.693 60.003C195.726 63.1123 192.496 65.2073 187.997 62.3075C187.71 61.4033 188.284 60.9292 189.026 60.5323C190.57 59.8376 192.592 60.2897 193.824 58.8453C195.762 56.585 193.477 53.8285 194.817 51.5131V51.5241Z" fill="#EB6344"/>
<path d="M189.206 61.282C188.799 61.6238 188.404 61.9656 187.998 62.3074C184.743 63.6416 184.169 67.1147 181.668 69.0663C180.915 69.6507 180.089 70.5328 179.204 70.0035C177.864 69.1986 178.641 68.1842 179.467 67.3463C181.274 65.505 181.525 62.7044 183.918 61.2269C186.37 60.3448 185.354 58.283 185.724 56.6952C188.739 55.8683 189.302 57.8419 189.888 59.7935C189.864 60.3669 189.637 60.8741 189.218 61.3041L189.206 61.282Z" fill="#EB5E3E"/>
<path d="M9.4043 96.4547H18.7485C14.1063 94.8559 12.1681 92.7389 16.1164 88.8137C13.3885 94.2385 17.6358 94.2164 21.4405 94.7457C22.7566 94.9331 25.2452 94.3377 24.97 96.4988C24.7188 98.5165 22.3738 97.7888 21.0457 97.6234C17.1692 97.1603 13.1372 97.9873 9.4043 96.4326V96.4547Z" fill="#EA5A3A"/>
<path d="M168.005 160.659C167.514 161.155 167.012 161.651 166.521 162.136C162.86 161.144 159.642 159.115 155.873 158.354C155.119 157.924 154.616 157.318 154.413 156.513C160.335 153.999 162.956 154.793 168.005 160.648V160.659Z" fill="#EA5736"/>
<path d="M203.037 87.3914C203.767 87.5016 204.509 87.6119 205.239 87.7332C205.526 89.0563 205.107 89.9714 203.54 90.214C201.542 89.8832 201.087 92.6066 199.029 92.1546C196.828 92.7169 194.614 92.7169 192.413 92.1546C190.307 92.1877 188.381 91.9451 187.914 89.5635C189.529 89.6627 191.144 89.762 192.748 89.8502C194.734 90.622 196.72 90.7212 198.694 89.784C200.142 88.9901 201.589 88.1853 203.037 87.3914Z" fill="#E84B28"/>
<path d="M150.86 86.9503C149.699 82.8928 150.393 79.0558 147.642 76.0567C150.549 74.6785 151.494 76.7955 151.973 78.284C152.834 80.9522 153.875 83.8962 150.86 86.9393V86.9503Z" fill="#EB6344"/>
<path d="M185.616 99.8066C185.772 101.262 185.09 102.916 186.753 104.03C186.753 106.367 187.148 108.749 185.784 110.921C185.293 110.7 185.126 110.303 185.078 109.84C184.97 110.844 184.803 111.858 185.485 112.773C184.54 114.306 183.307 113.754 183.379 112.53C183.654 108.241 183.14 103.787 185.604 99.8066H185.616Z" fill="#EB5D3D"/>
<path d="M14.728 85.2524C14.2255 85.3075 13.7111 85.3626 13.2086 85.4067C12.8496 85.7706 12.4069 85.969 11.8685 85.9911C11.0909 85.8919 10.4208 85.5611 9.77476 85.1862C8.43474 84.3593 6.96312 84.5467 5.49149 84.7341C4.96505 84.7782 4.48647 84.668 4.03183 84.4254C3.18235 84.3923 2.33287 84.3593 1.4834 84.3262C6.28114 79.2432 8.81761 79.4196 14.728 85.2413V85.2524Z" fill="#EA5A3A"/>
<path d="M160.767 44.8534C161.628 44.8203 162.501 44.7762 163.363 44.7432C165.505 47.0035 169.082 48.1612 169.56 51.6895C165.038 52.1746 164.416 47.7863 161.532 46.1986C161.126 45.9781 161.018 45.3055 160.767 44.8534Z" fill="#EA5C3C"/>
<path d="M182.098 31.6334C184.336 32.4824 185.855 34.3678 187.147 36.3304C187.77 37.2676 186.669 38.3702 185.807 38.0394C183.403 37.1353 181.716 35.305 180.639 33.1439C180.352 32.5595 180.77 31.7326 182.086 31.6334H182.098Z" fill="#ED7459"/>
<path d="M3.58945 111.737C1.87854 113.005 2.7998 114.868 2.32122 116.423C1.87854 114.89 1.19656 113.379 1.04103 111.825C0.849595 109.95 -1.37579 106.83 1.62728 106.488C4.05607 106.202 3.5057 109.708 3.58945 111.737Z" fill="#EC6749"/>
<path d="M41.9112 42.6482C42.2342 42.6482 42.5573 42.6593 42.8803 42.6703C44.7707 44.2139 43.7896 46.3529 44.2083 48.2053C43.323 50.5648 43.2273 53.5087 39.4106 53.6852L39.3388 53.619C38.1663 49.5615 39.7336 46.0442 41.9112 42.6482Z" fill="#EC6A4D"/>
<path d="M167.813 38.1386C168.807 36.9368 170.278 37.2235 171.618 37.0912C173.748 38.5466 175.77 40.0792 177.026 42.4057C172.216 43.9052 171.762 37.874 167.813 38.1386Z" fill="#EA5C3C"/>
<path d="M60.744 185.202C60.744 185.875 60.744 186.558 60.744 187.231C57.5136 187.286 56.2334 185.037 54.8096 182.964C54.0798 182.181 54.0798 181.222 54.9651 180.792C55.8984 180.34 56.6521 181.101 57.1427 181.872C58.052 183.251 59.1288 184.475 60.744 185.213V185.202Z" fill="#E84B27"/>
<path d="M143.765 103.015C144.937 100.744 146.11 98.4614 147.797 95.2198C149.484 99.9279 147.414 101.968 143.765 103.015Z" fill="#EA5B3A"/>
<path d="M86.7422 124.648C89.9367 125.442 91.9587 126.203 92.6407 128.562C92.6885 128.739 91.8032 129.444 91.4562 129.378C89.1949 128.959 87.6874 127.724 86.7422 124.648Z" fill="#EE755A"/>
<path d="M135.88 115.541C134.469 116.831 133.631 118.937 131.178 119.08C130.269 119.135 129.886 118.165 130.401 117.503C131.525 116.059 132.59 114.438 134.648 114.008C135.713 113.787 135.821 114.658 135.88 115.541Z" fill="#ED7256"/>
<path d="M124.239 62.7595C121.032 64.0385 119.166 66.1003 114.272 65.5049C117.587 62.7705 119.896 61.679 124.239 62.7595Z" fill="#EC6C4F"/>
<path d="M111.88 196.096C111.999 194.354 107.142 195.964 109.319 192.854C110.587 194.685 112.681 193.428 114.284 193.99C116.103 195.269 118.52 193.615 120.302 195.048C117.706 196.846 114.715 195.964 111.868 196.096H111.88Z" fill="#EA5E3E"/>
<path d="M186.812 139.037C187.219 138.298 187.614 137.559 188.021 136.821C190.521 137.868 193.022 138.915 195.523 139.963C195.343 140.779 194.769 141.231 193.907 141.385C191.311 141.198 188.978 140.338 186.824 139.048L186.812 139.037Z" fill="#EB5E3E"/>
<path d="M59.4638 79.9048C59.9782 82.0989 60.385 84.2931 58.6023 87.226C56.8675 83.83 56.7837 81.294 58.2793 78.6809C58.9732 78.8353 59.0689 79.4968 59.4638 79.9048Z" fill="#EA5A3A"/>
<path d="M17.9342 87.5678C17.5394 86.8842 17.1565 86.1896 16.7617 85.506C19.011 84.4585 22.2295 81.4484 23.5097 83.9072C24.7659 86.2998 19.9443 86.3109 17.9342 87.5678Z" fill="#EA5A3A"/>
<path d="M63.4119 98.4283C63.7469 98.8583 64.4408 99.3435 64.3691 99.6963C63.9144 101.67 68.6523 103.467 65.4459 104.757C63.3521 105.595 62.8017 101.946 61.8685 100.137C61.6531 99.7184 61.8924 99.1009 61.9163 98.5717C62.359 97.9652 62.8615 97.9211 63.4119 98.4394V98.4283Z" fill="#EE785E"/>
<path d="M137.974 63.6195C138.872 63.9723 139.841 64.2259 140.643 64.7C141.707 65.3395 143.598 65.9019 142.401 67.4896C141.48 68.7135 140.319 67.4565 139.374 66.9824C137.998 66.3098 136.67 65.527 135.318 64.7993C135.821 63.6746 137.245 64.3031 137.974 63.6195Z" fill="#ED7357"/>
<path d="M44.2089 48.2053C42.0792 46.7058 43.3834 44.5006 42.8809 42.6703C43.3475 42.2734 43.8141 41.8764 44.2807 41.4795C45.5729 43.7288 45.5848 45.9781 44.2089 48.2053Z" fill="#E84B28"/>
<path d="M93.885 193.802C93.8252 195.037 93.0954 195.842 91.7195 195.875C90.4153 195.908 89.3984 195.28 89.3026 194.001C89.2069 192.7 90.1402 191.983 91.4443 191.873C92.8322 191.763 93.6218 192.523 93.885 193.814V193.802Z" fill="#ED755A"/>
<path d="M70.2908 65.7806C71.224 62.2964 74.5382 63.2777 76.8593 62.3846C75.4714 65.108 73.1623 66.0121 70.207 65.6814L70.2788 65.7696L70.2908 65.7806Z" fill="#E9502D"/>
<path d="M91.3484 64.7221C89.3384 64.8985 87.7351 64.0826 85.6055 62.947C88.9555 61.6349 91.5398 62.0098 94.0284 63.5203C93.9806 65.527 92.6645 65.1191 91.3484 64.7221Z" fill="#EB6344"/>
<path d="M102.715 23.0552C100.286 22.4157 97.5223 23.7939 95.2969 22.0077C97.3667 21.6439 99.4246 21.1367 101.518 20.9492C103.325 20.7838 104.163 21.4564 102.715 23.0552Z" fill="#E84E2A"/>
<path d="M55.7188 158.112C58.8175 158.542 60.4686 159.765 61.7847 161.871C58.1715 162.842 57.2143 160.703 55.7188 158.112Z" fill="#E94E2C"/>
<path d="M73.8443 114.978C72.3607 114.206 70.7335 113.501 71.1284 111.538C71.2002 111.196 72.0616 110.678 72.4086 110.766C74.0597 111.152 74.8613 112.31 75.1365 113.809C74.9929 114.471 74.5502 114.846 73.8323 114.978H73.8443Z" fill="#EF7F65"/>
<path d="M101.219 70.8525C103.863 71.8118 105.658 72.4733 105.873 74.6124C105.897 74.866 105 75.5165 104.725 75.4283C102.786 74.8439 101.506 73.6862 101.207 70.8525H101.219Z" fill="#E94E2B"/>
<path d="M1.26796 93.0477C1.99779 97.1824 6.81947 93.8195 8.4227 96.3554C5.50338 95.6608 0.705632 99.0017 0.203125 93.1028C0.526165 92.5956 0.873134 92.5515 1.26796 93.0477Z" fill="#EA5A3A"/>
<path d="M96.4098 13.0326C94.651 11.1692 92.2102 12.3931 90.1523 11.8418C92.2222 10.7282 94.5672 10.8605 96.8285 10.629C97.8335 10.5297 98.8984 10.8826 98.695 12.0072C98.5155 13.0436 97.4148 13.1319 96.4098 13.0326Z" fill="#EC6A4D"/>
<path d="M105 136.81C105.754 136.214 106.543 135.508 107.596 135.916C108.565 136.302 108.338 137.118 107.74 137.625C106.496 138.662 105.251 140.261 103.469 138.221C103.181 137.008 103.516 136.369 105.012 136.81H105Z" fill="#E95432"/>
<path d="M57.1427 25.1722C55.9343 23.6616 54.7498 22.129 54.3789 20.0672C56.1257 20.0672 57.3581 20.6405 58.0759 22.0188C56.8197 22.8347 57.4897 24.1357 57.1307 25.1832L57.1427 25.1722Z" fill="#F8CFC5"/>
<path d="M120.278 127.107C119.991 126.17 120.063 125.31 120.96 124.659C121.965 123.931 122.994 122.344 124.31 123.865C125.231 124.946 123.748 125.706 122.922 126.423C122.121 127.118 121.187 127.173 120.182 126.996L120.29 127.096L120.278 127.107Z" fill="#ED7358"/>
<path d="M154.425 156.513C154.928 156.976 155.442 157.439 155.945 157.891C156.124 160.184 154.832 161.21 152.463 161.309C152.367 160.383 152.272 159.468 152.164 158.542C152.607 157.571 153.253 156.788 154.425 156.513Z" fill="#E84B28"/>
<path d="M193.896 141.374C194.434 140.9 194.972 140.426 195.511 139.952C196.875 140.117 199.447 139.643 198.37 141.793C197.497 143.524 195.355 142.201 193.896 141.374Z" fill="#E84D29"/>
<path d="M196.085 104.801C197.007 107.029 195.188 109.741 197.509 111.737C196.037 113.357 195.128 112.652 195.08 111.009C195.02 108.925 194.817 106.742 196.085 104.812V104.801Z" fill="#EE795E"/>
<path d="M105 136.81C104.485 137.284 103.971 137.747 103.457 138.221C101.626 138 100.154 137.427 100.059 135.321C102.32 134.174 103.385 136.313 105 136.81Z" fill="#E9512F"/>
<path d="M137.974 63.6195C137.088 64.0165 136.203 64.4134 135.317 64.7993C133.906 64.4575 132.087 64.8985 131.273 62.8036C133.774 61.271 135.712 64.226 137.974 63.6195Z" fill="#E9522E"/>
<path d="M72.457 168.994C72.9954 168.487 73.5458 167.991 74.0842 167.484C75.1849 168.388 77.0394 169.435 75.2806 170.736C73.9885 171.696 72.8638 170.361 72.457 168.994Z" fill="#E84B27"/>
<path d="M120.314 195.048C118.304 194.685 116.007 195.743 114.296 193.99C116.461 193.99 118.687 192.435 120.769 194.221C120.852 194.299 120.828 194.574 120.745 194.707C120.661 194.85 120.458 194.938 120.314 195.048Z" fill="#E9512F"/>
<path d="M120.171 127.008C119.31 128.794 118.281 130.348 115.11 130.062C116.438 127.735 117.97 126.853 120.267 127.118L120.159 127.019L120.171 127.008Z" fill="#E95230"/>
<path d="M73.8447 114.978C74.2754 114.592 74.7062 114.206 75.1489 113.809C76.1658 114.714 78.2955 115.673 76.5607 116.985C75.4001 117.867 74.4549 116.059 73.8447 114.967V114.978Z" fill="#E95432"/>
<path d="M206.913 109.311C207.535 111.185 206.147 113.479 208.289 115.044C207.14 116.434 206.243 115.904 206.063 114.559C205.824 112.784 205.836 110.943 206.913 109.311Z" fill="#EC6B4E"/>
<path d="M41.6243 174.187C43.1796 174.254 44.8786 174.187 44.9982 176.205C45.0222 176.514 44.2684 177.186 43.9693 177.142C42.1387 176.867 41.3491 175.819 41.72 174.099L41.6123 174.187H41.6243Z" fill="#E84E2B"/>
<path d="M197.521 111.726C197.916 109.19 196.05 106.246 199.124 104.195C198.179 106.632 199.352 109.443 197.521 111.726Z" fill="#EE795E"/>
<path d="M63.412 98.4283C62.9095 98.4724 62.407 98.5165 61.9164 98.5607C61.39 97.6896 59.6432 97.5904 60.038 96.2011C60.1457 95.8152 60.8157 95.286 61.1986 95.308C63.3881 95.4183 63.1608 97.0942 63.412 98.4394V98.4283Z" fill="#F08C75"/>
<path d="M91.6838 174.143C92.5931 173.724 93.5024 173.305 94.4117 172.886C95.3928 172.997 96.9123 173.294 96.2303 174.298C94.9142 176.26 93.2033 174.573 91.6719 174.132L91.6838 174.143Z" fill="#E84C29"/>
<path d="M91.3486 64.7221C92.3656 64.5567 93.4544 64.5347 94.0287 63.5203C95.4285 64.0165 97.5343 64.8875 96.0866 66.2216C94.6149 67.5668 92.8442 65.6152 91.3606 64.7221H91.3486Z" fill="#ED7459"/>
<path d="M3.54114 117.217C3.94793 117.217 4.36668 117.205 4.77347 117.194C3.924 118.837 7.09458 121.12 3.81632 122.388C2.56005 120.712 2.99077 118.97 3.54114 117.217Z" fill="#E84B28"/>
<path d="M1.26902 93.0477C0.922048 93.0807 0.563115 93.0918 0.204181 93.1028C0.000785766 90.7763 -0.406005 88.4278 1.11348 86.2998C1.16134 88.5491 1.22116 90.7984 1.26902 93.0477Z" fill="#EE7D63"/>
<path d="M184.396 75.4724C183.199 77.3578 183.175 79.4638 183.092 81.5477C182.816 79.3976 179.287 76.6522 184.396 75.4724Z" fill="#EB6647"/>
<path d="M59.4638 79.9048C59.069 79.4968 58.6741 79.0889 58.2793 78.6809C58.7579 77.6224 57.693 75.0093 60.0141 75.8914C62.084 76.6742 58.8656 78.4053 59.4518 79.9048H59.4638Z" fill="#E94E2B"/>
<path d="M198.717 73.2451C196.444 75.4283 193.585 74.1052 190.988 74.3257C193.441 73.2562 196.073 73.1569 198.717 73.2451Z" fill="#EB6647"/>
<path d="M70.2072 65.6924C70.0158 67.0596 69.5611 68.2284 67.7066 67.9307C67.3836 67.8755 66.8571 67.1258 66.9529 66.8501C67.5272 65.2514 68.8672 65.3506 70.279 65.7806L70.2072 65.6924Z" fill="#EB6344"/>
<path d="M57.1419 181.861C55.7181 181.046 54.8926 181.332 54.7969 182.953C53.8397 182.038 52.8467 180.847 54.4379 180.009C56.1847 179.083 57.2137 180.009 57.1419 181.861Z" fill="#ED7154"/>
<path d="M207.081 83.4551C207.248 81.5587 206.315 79.5189 207.978 77.8209C208.242 79.7725 209.354 81.8454 207.081 83.4551Z" fill="#E84A26"/>
<path d="M142.808 164.418C142.449 166.227 143.813 168.443 141.288 169.722C142.461 168.112 140.893 165.852 142.808 164.418Z" fill="#EC6648"/>
<path d="M190.403 74.3367C188.74 76.3214 186.407 75.296 184.349 75.4944C186.167 74.2375 188.357 74.5682 190.403 74.3367Z" fill="#EB6647"/>
<path d="M192.412 92.1436C194.614 92.1436 196.827 92.1436 199.028 92.1436C196.827 93.4446 194.614 93.4667 192.412 92.1436Z" fill="#EB6546"/>
<path d="M198.693 60.003C198.741 58.0845 198.789 56.177 198.837 54.2585C200.105 56.1991 200.56 58.1286 198.693 60.003Z" fill="#EB6547"/>
<path d="M185.485 112.773C183.894 111.549 184.648 110.017 185.186 108.462C185.39 109.278 185.581 110.105 185.784 110.921C185.689 111.538 185.581 112.156 185.485 112.773Z" fill="#E84D2A"/>
<path d="M70.2551 184.011C70.2551 182.258 70.2551 180.516 70.2432 178.763C71.9182 180.505 72.1694 182.258 70.2551 184.011Z" fill="#EB6648"/>
<path d="M115.062 24.1798C117.216 24.1468 119.382 24.1137 121.535 24.0806C119.394 25.2824 117.24 25.2714 115.062 24.1798Z" fill="#ED6F52"/>
<path d="M139.278 187.363C137.435 185.577 137.495 183.747 139.158 181.895C139.768 183.703 139.744 185.533 139.278 187.363Z" fill="#E84B27"/>
<path d="M191.515 129.113C189.744 131.186 187.339 130.095 185.174 130.205C187.148 129.158 189.314 129.014 191.515 129.113Z" fill="#EB6243"/>
<path d="M195.045 126.125C196.277 125.971 197.833 126.181 197.797 127.316C197.749 128.717 196.098 128.022 195.093 128.099C195.081 127.438 195.057 126.787 195.045 126.125Z" fill="#F7C7BD"/>
<path d="M91.6592 3.2306C93.5017 1.38927 95.8348 2.26032 98.0123 2.27134C96.0382 3.39599 93.8367 3.24162 91.6592 3.2306Z" fill="#EC6D50"/>
<path d="M3.54117 117.216C3.63688 118.937 3.72063 120.668 3.81635 122.388C1.90204 120.998 2.52419 119.025 2.39258 117.216C2.77544 117.205 3.1583 117.205 3.54117 117.216Z" fill="#EF8067"/>
<path d="M198.693 89.784C196.731 91.4159 194.757 91.3828 192.747 89.8502C194.733 89.8281 196.707 89.8061 198.693 89.784Z" fill="#EB6546"/>
<path d="M119.022 3.20855C115.863 2.44776 115.05 4.45448 114.32 6.58248C114.2 3.46215 114.212 0.496176 119.022 3.20855Z" fill="#EB6040"/>
<path d="M127.493 16.3073C127.457 13.7714 127.409 11.2244 127.373 8.68842C129.24 11.2023 129.096 13.7493 127.493 16.3073Z" fill="#EB6141"/>
<path d="M114.369 6.50528C114.165 8.47892 114.5 10.5408 113.196 12.327C113.364 10.3533 112.167 8.13711 114.369 6.50528Z" fill="#EB6040"/>
<path d="M11.6055 94.0511C12.4789 91.2174 12.6942 88.3727 11.7251 85.517C12.2157 85.4839 12.7062 85.4508 13.1967 85.4067C12.6224 88.2845 14.9077 91.6033 11.6055 94.0511Z" fill="#EB6446"/>
<path d="M3.57705 86.4873C3.94795 88.9571 2.76347 91.5261 4.10349 93.9408C1.06452 91.6253 2.00971 89.0784 3.57705 86.4873Z" fill="#EE7D63"/>
<path d="M189.302 59.9369C191.216 60.411 193.142 60.6977 195.033 59.8487C193.657 62.2633 191.18 60.9402 189.206 61.282C189.242 60.83 189.266 60.3779 189.302 59.9369Z" fill="#EB6547"/>
<path d="M10.732 84.5247C8.81765 83.7198 6.83156 84.0726 4.85742 84.2711C6.89138 82.7715 8.86551 82.4738 10.732 84.5247Z" fill="#EB6446"/>
</g>
<defs>
<clipPath id="clip0_116_510">
<rect width="210" height="197" fill="white"/>
</clipPath>
</defs>
</svg>
