<svg width="36" height="36" viewBox="0 0 36 36" fill="none" xmlns="http://www.w3.org/2000/svg">
<path d="M19.1429 15.1111H26L25.2381 18H19.1429V31H16.0952V18H10V15.1111H16.0952V12.4071C16.0952 9.83167 16.3787 8.89711 16.909 7.95533C17.4286 7.02483 18.2313 6.2639 19.213 5.77133C20.2065 5.26867 21.1924 5 23.9093 5C24.7048 5 25.4027 5.07222 26 5.21667V7.88889H23.9093C21.8918 7.88889 21.2777 8.00156 20.6499 8.31933C20.1993 8.54251 19.8317 8.8914 19.597 9.31889C19.2617 9.91256 19.1429 10.4947 19.1429 12.4071V15.1111Z" fill="black"/>
</svg>
