<svg width="37" height="37" viewBox="0 0 37 37" fill="none" xmlns="http://www.w3.org/2000/svg">
<path d="M23.5601 6.51758H12.4755C8.89885 6.51758 6 9.41694 6 12.9936V24.0772C6 27.6538 8.89936 30.5532 12.476 30.5532H23.5596C27.1362 30.5532 30.0356 27.6538 30.0356 24.0772V12.9936C30.0356 9.41694 27.1368 6.51758 23.5601 6.51758Z" stroke="black" stroke-width="2" stroke-miterlimit="10"/>
<path d="M18.5 23.8194C21.7043 23.8194 24.3019 21.2219 24.3019 18.0176C24.3019 14.8134 21.7043 12.2158 18.5 12.2158C15.2958 12.2158 12.6982 14.8134 12.6982 18.0176C12.6982 21.2219 15.2958 23.8194 18.5 23.8194Z" stroke="black" stroke-width="2" stroke-miterlimit="10"/>
<path d="M25.5449 12.2157C26.2314 12.2157 26.788 11.6591 26.788 10.9726C26.788 10.286 26.2314 9.72949 25.5449 9.72949C24.8583 9.72949 24.3018 10.286 24.3018 10.9726C24.3018 11.6591 24.8583 12.2157 25.5449 12.2157Z" fill="black"/>
</svg>
