<svg width="39" height="38" viewBox="0 0 39 38" fill="none" xmlns="http://www.w3.org/2000/svg">
<circle cx="19.5176" cy="19" r="12.25" stroke="black" stroke-width="1.5"/>
<g clip-path="url(#clip0_148_25)">
<path d="M27.6155 17C27.3936 15.9266 27.5263 14.9115 27 14.1181C27.5561 13.7535 27.7368 14.3136 27.8284 14.7073C27.9931 15.4132 28.1922 16.192 27.6155 16.9971V17Z" fill="black"/>
<path d="M26.5 21.5C26.5 21.0001 27.5 17.4997 28 18C28.3646 19.2079 27.2886 21.2313 26.5 21.5Z" fill="black"/>
<path d="M16 24C17.0828 24.3354 17.7682 24.6567 17.9994 25.6535C18.0156 25.728 17.7155 26.0261 17.5979 25.9982C16.8314 25.8212 16.3204 25.2995 16 24Z" fill="black"/>
<path d="M26 22.6135C25.5055 23.1186 25.2122 23.943 24.3532 23.9991C24.0348 24.0207 23.9007 23.6409 24.0808 23.3819C24.4747 22.8164 24.8477 22.1819 25.5684 22.0136C25.9413 21.9272 25.979 22.2682 26 22.6135Z" fill="black"/>
<path d="M23 13.1262C22.3565 13.5182 21.982 14.1501 21 13.9677C21.6651 13.1296 22.1285 12.795 23 13.1262Z" fill="black"/>
<path d="M11.8359 17.2865C12.028 17.8 12.1799 18.3135 11.5143 19C10.8667 18.2052 10.8354 17.6116 11.3937 17C11.6528 17.0361 11.6885 17.191 11.8359 17.2865Z" fill="black"/>
<path d="M12.341 20.1021C12.411 20.2286 12.5559 20.3713 12.5409 20.4751C12.446 21.0557 13.4356 21.5843 12.7658 21.9638C12.3285 22.2103 12.2136 21.1367 12.0186 20.6048C11.9736 20.4816 12.0236 20.3 12.0286 20.1443C12.1211 19.9659 12.226 19.9529 12.341 20.1054V20.1021Z" fill="black"/>
<path d="M24.6812 12.3721C24.9577 12.4566 25.2396 12.4922 25.5076 12.637C25.8648 12.8335 26.4236 12.9325 26.3256 13.7176C26.2504 14.3226 25.7874 13.8642 25.4826 13.7305C25.0413 13.5436 24.5977 13.305 24.1552 13.0922C24.1361 12.5628 24.5839 12.7268 24.6812 12.3721Z" fill="black"/>
<path d="M13.2177 13.2309C13.3868 12.5288 13.9876 12.7266 14.4084 12.5488C14.1568 13.0976 13.5357 13.5667 13 13.5L13.2155 13.2309H13.2177Z" fill="black"/>
<path d="M17 13C16.4665 12.9802 15 13 15 12.4999C15.6073 12.2355 17.0682 12.4732 17.5193 12.7776C17.5106 13.182 17.2386 13.08 17 13Z" fill="black"/>
<path d="M13.6824 23C13.3177 22.8172 12.9177 22.65 13.0148 22.1852C13.0324 22.1042 13.2442 21.9815 13.3294 22.0024C13.7353 22.0938 14.5 22.5 14.5 23C14.4647 23.1567 14.5 23.5 14 23.5L13.6824 23Z" fill="black"/>
<path d="M18.1368 13.7965C19.1978 14.2463 19.9174 14.5538 19.9065 15.0294C19.9045 15.0856 19.4983 15.1408 19.3873 15.0965C18.604 14.7921 18.1231 14.4267 18.1318 13.7954L18.1368 13.7965Z" fill="black"/>
<path d="M20.2949 26.1035C20.4902 25.9997 20.7949 26.1038 21.0003 26C21.3974 26.2263 21.04 26.3061 20.7949 26.6035C20.2851 27.2114 19.7707 28.929 19.3091 27.3515C19.1914 26.6402 19.7949 27.1038 19.9414 26.5238L20.2949 26.1035Z" fill="black"/>
<path d="M22.2763 25.5904C22.2242 25.4016 22.2372 25.2283 22.3999 25.0972C22.7556 24.5001 23.2614 24.1934 23.5 24.5C23.667 24.7177 23 25.4999 22.7556 25.4527C22.6103 25.5927 22.4411 25.6038 22.2589 25.5682L22.2784 25.5882L22.2763 25.5904Z" fill="black"/>
<path d="M20 27C19.7918 27.2933 19.7082 27.2067 19.5 27.5C19.1247 27.127 19 27.5 18 26.0793C18.9153 25.37 19.3462 26.6931 20 27Z" fill="black"/>
<path d="M25.4841 12.7978C25.3236 12.8778 25.1631 12.9578 25.0026 13.0355C24.7467 12.9667 24.417 13.0555 24.2695 12.6334C24.7228 12.3246 25.0742 12.92 25.4841 12.7978Z" fill="black"/>
<path d="M22.4174 25.3846C23 25.4998 22.1602 26.3162 21.5 26C21.7407 25.5312 22.0184 25.3535 22.4348 25.4068L22.4153 25.3868L22.4174 25.3846Z" fill="black"/>
<path d="M14 23.3427C14.1277 23.2295 14.2553 23.1164 14.3865 23C14.6879 23.2651 15.3191 23.5464 14.805 23.9311C14.461 24.1898 14.1809 23.6595 14 23.3395V23.3427Z" fill="black"/>
<path d="M17.0332 13.02C17.2176 12.9867 17.4149 12.9822 17.519 12.7778C17.7728 12.8778 18.1545 13.0533 17.8921 13.3222C17.6253 13.5932 17.3043 13.2 17.0354 13.02H17.0332Z" fill="black"/>
<path d="M11.4859 17C11.3239 16.9027 11.162 16.8054 11 16.7081C11.1963 16.4556 10.7595 15.8322 11.7117 16.0427C12.5607 16.2294 11.2405 16.6423 11.481 17H11.4859Z" fill="black"/>
<path d="M11.0435 14.8508C11.5 13.913 11.2927 14.3751 12.5 13.4998C12.958 13.462 13.051 13.6897 12.9936 13.913C12 15 11.8465 15.1277 11.0005 14.7793L11.0435 14.8508Z" fill="black"/>
</g>
<defs>
<clipPath id="clip0_148_25">
<rect width="17.3333" height="15.5278" fill="white" transform="translate(10.8496 12.5)"/>
</clipPath>
</defs>
</svg>
