<svg width="72" height="72" viewBox="0 0 72 72" fill="none" xmlns="http://www.w3.org/2000/svg">
<circle cx="36" cy="36" r="35.5" stroke="black"/>
<g clip-path="url(#clip0_120_2)">
<path d="M58.9912 31.8432C58.4088 29.579 58.757 27.438 57.376 25.7645C58.8351 24.9954 59.3094 26.1767 59.5496 27.0073C59.9819 28.4962 60.5043 30.1389 58.9912 31.837V31.8432Z" fill="black"/>
<path d="M55.4307 40.8074C56.0191 39.54 56.6075 38.2664 57.4542 36.4576C58.3008 39.0847 57.262 40.2229 55.4307 40.8074Z" fill="black"/>
<path d="M26.8135 52.8725C28.4167 53.3155 29.4314 53.74 29.7737 55.0566C29.7977 55.1551 29.3534 55.5488 29.1793 55.5119C28.0444 55.2781 27.2878 54.5891 26.8135 52.8725Z" fill="black"/>
<path d="M51.4733 47.7967C50.7648 48.5165 50.3445 49.6916 49.1136 49.7716C48.6572 49.8024 48.4651 49.261 48.7233 48.8918C49.2877 48.0858 49.8221 47.1814 50.8549 46.9415C51.3893 46.8184 51.4433 47.3045 51.4733 47.7967Z" fill="black"/>
<path d="M45.6316 18.3384C44.0224 19.0521 43.0857 20.2026 40.6299 19.8704C42.2931 18.3445 43.452 17.7354 45.6316 18.3384Z" fill="black"/>
<path d="M13.1228 27.9056C13.381 29.1299 13.5851 30.3543 12.6905 31.9908C11.8198 30.0959 11.7778 28.6808 12.5283 27.2226C12.8766 27.3088 12.9246 27.6779 13.1228 27.9056Z" fill="black"/>
<path d="M15.1045 38.2418C15.2726 38.4818 15.6209 38.7525 15.5849 38.9494C15.3567 40.0507 17.7345 41.0535 16.1253 41.7734C15.0745 42.241 14.7983 40.2045 14.3299 39.1955C14.2218 38.9617 14.3419 38.6171 14.3539 38.3218C14.5761 37.9834 14.8283 37.9588 15.1045 38.248V38.2418Z" fill="black"/>
<path d="M52.5244 18.8244C52.9747 19.0213 53.4611 19.1628 53.8634 19.4274C54.3978 19.7842 55.3465 20.098 54.7461 20.984C54.2837 21.6669 53.7013 20.9655 53.2269 20.701C52.5364 20.3256 51.8699 19.8888 51.1914 19.4828C51.4436 18.8552 52.1581 19.2059 52.5244 18.8244Z" fill="black"/>
<path d="M18.5567 20.0242C19.025 18.08 20.6883 18.6275 21.8532 18.1353C21.1566 19.655 19.9978 20.1595 18.5146 19.975L18.5507 20.0242H18.5567Z" fill="black"/>
<path d="M29.1253 19.4399C28.1166 19.5384 27.312 19.0831 26.2432 18.4494C27.9244 17.7172 29.2214 17.9264 30.4703 18.7693C30.4463 19.8891 29.7858 19.6614 29.1253 19.4399Z" fill="black"/>
<path d="M20.3404 47.4829C19.5958 47.0522 18.7792 46.6585 18.9774 45.5633C19.0134 45.3726 19.4457 45.0834 19.6199 45.1326C20.4485 45.348 20.8508 45.994 20.9889 46.8307C20.9168 47.1999 20.6947 47.4091 20.3344 47.4829H20.3404Z" fill="black"/>
<path d="M34.0783 22.8543C35.4053 23.3896 36.3059 23.7588 36.414 24.9524C36.426 25.0939 35.9757 25.4569 35.8376 25.4076C34.8649 25.0816 34.2224 24.4355 34.0723 22.8543H34.0783Z" fill="black"/>
<path d="M35.9757 59.6587C36.354 59.3265 36.7503 58.9327 37.2787 59.1604C37.7651 59.3757 37.651 59.831 37.3507 60.114C36.7263 60.6924 36.1018 61.5845 35.2071 60.4463C35.063 59.7695 35.2312 59.4126 35.9817 59.6587H35.9757Z" fill="black"/>
<path d="M43.6438 54.2507C43.4997 53.7277 43.5357 53.2478 43.986 52.8848C44.4904 52.4788 45.0068 51.5928 45.6673 52.4418C46.1296 53.0448 45.3851 53.4693 44.9708 53.8692C44.5685 54.2568 44.1001 54.2876 43.5957 54.1892L43.6498 54.2445L43.6438 54.2507Z" fill="black"/>
<path d="M35.976 59.6587C35.7178 59.9233 35.4596 60.1817 35.2014 60.4463C34.2827 60.3232 33.5441 60.0033 33.4961 58.8282C34.6309 58.1883 35.1653 59.3819 35.976 59.6587Z" fill="black"/>
<path d="M52.5246 18.8244C52.0803 19.0459 51.636 19.2674 51.1916 19.4827C50.4831 19.292 49.5704 19.5381 49.1621 18.3691C50.4171 17.5139 51.3898 19.1628 52.5246 18.8244Z" fill="black"/>
<path d="M43.5897 54.1891C43.1574 55.1859 42.641 56.0534 41.0498 55.8934C41.7163 54.5952 42.4849 54.103 43.6377 54.2507L43.5837 54.1953L43.5897 54.1891Z" fill="black"/>
<path d="M20.3398 47.4829C20.556 47.2676 20.7722 47.0522 20.9943 46.8307C21.5047 47.3353 22.5735 47.8705 21.7029 48.6027C21.1204 49.0949 20.6461 48.0859 20.3398 47.4768V47.4829Z" fill="black"/>
<path d="M15.104 38.2418C14.8518 38.2664 14.5996 38.291 14.3534 38.3156C14.0892 37.8296 13.2126 37.7742 13.4107 36.999C13.4648 36.7837 13.801 36.4883 13.9932 36.5006C15.092 36.5622 14.9779 37.4974 15.104 38.248V38.2418Z" fill="black"/>
<path d="M29.125 19.4397C29.6354 19.3474 30.1818 19.3351 30.47 18.7691C31.1725 19.0459 32.2293 19.532 31.5028 20.2764C30.7642 21.0271 29.8756 19.9381 29.131 19.4397H29.125Z" fill="black"/>
<path d="M13.1228 27.9056C12.9246 27.6779 12.7265 27.4503 12.5283 27.2227C12.7685 26.632 12.2341 25.1739 13.399 25.6661C14.4378 26.1029 12.8225 27.0688 13.1168 27.9056H13.1228Z" fill="black"/>
<path d="M18.5149 19.975C18.4189 20.7379 18.1907 21.39 17.26 21.2239C17.0979 21.1932 16.8337 20.7748 16.8817 20.621C17.1699 19.7289 17.8424 19.7842 18.551 20.0242L18.5149 19.975Z" fill="black"/>
</g>
<defs>
<clipPath id="clip0_120_2">
<rect width="48" height="43" fill="white" transform="translate(12 18)"/>
</clipPath>
</defs>
</svg>
